<?xml version="1.0" encoding="UTF-8"?> <!-- Generator: Adobe Illustrator 23.0.1, SVG Export Plug-In . SVG Version: 6.00 Build 0) --> <svg xmlns="http://www.w3.org/2000/svg" xmlns:xlink="http://www.w3.org/1999/xlink" x="0px" y="0px" viewBox="0 0 595.3 841.9" style="enable-background:new 0 0 595.3 841.9;" xml:space="preserve"> <style type="text/css"> .st0{fill:#F6CB31;} .st1{clip-path:url(#SVGID_2_);fill:#F6CB31;} .st2{fill:none;stroke:#F6CA30;stroke-width:26;stroke-miterlimit:10;} </style> <g id="Layer_1"> <g> <path class="st0" d="M291.9,341.6h-98.9v-29.7h98.9V341.6z M202.8,331.7H282v-9.9h-79.1V331.7z M202.8,331.7"></path> <path class="st0" d="M242.4,529.5c-13.6,0-24.7-11.1-24.7-24.7v-49.5c0-13.6,11.1-24.7,24.7-24.7c13.6,0,24.7,11.1,24.7,24.7v49.5 C267.1,518.4,256,529.5,242.4,529.5L242.4,529.5z M242.4,440.5c-8.2,0-14.8,6.7-14.8,14.8v49.5c0,8.2,6.7,14.8,14.8,14.8 c8.2,0,14.8-6.7,14.8-14.8v-49.5C257.2,447.1,250.6,440.5,242.4,440.5L242.4,440.5z M242.4,440.5"></path> <rect x="222.6" y="475.1" class="st0" width="39.6" height="9.9"></rect> <path class="st0" d="M217.7,302c-8.2,0-14.8-6.7-14.8-14.8c0-8.2,6.7-14.8,14.8-14.8c8.2,0,14.8,6.7,14.8,14.8 C232.5,295.3,225.9,302,217.7,302L217.7,302z M217.7,282.2c-2.7,0-4.9,2.2-4.9,4.9c0,2.7,2.2,4.9,4.9,4.9c2.7,0,4.9-2.2,4.9-4.9 C222.6,284.4,220.4,282.2,217.7,282.2L217.7,282.2z M217.7,282.2"></path> <path class="st0" d="M252.3,282.2c-8.2,0-14.8-6.7-14.8-14.8c0-8.2,6.7-14.8,14.8-14.8c8.2,0,14.8,6.7,14.8,14.8 C267.1,275.6,260.5,282.2,252.3,282.2L252.3,282.2z M252.3,262.4c-2.7,0-4.9,2.2-4.9,4.9s2.2,4.9,4.9,4.9c2.7,0,4.9-2.2,4.9-4.9 S255,262.4,252.3,262.4L252.3,262.4z M252.3,262.4"></path> <path class="st0" d="M291.9,302c-8.2,0-14.8-6.7-14.8-14.8c0-8.2,6.7-14.8,14.8-14.8c8.2,0,14.8,6.7,14.8,14.8 C306.7,295.3,300,302,291.9,302L291.9,302z M291.9,282.2c-2.7,0-4.9,2.2-4.9,4.9c0,2.7,2.2,4.9,4.9,4.9c2.7,0,4.9-2.2,4.9-4.9 C296.8,284.4,294.6,282.2,291.9,282.2L291.9,282.2z M291.9,282.2"></path> <path class="st0" d="M336.4,292.1c-8.2,0-14.8-6.7-14.8-14.8s6.7-14.8,14.8-14.8c8.2,0,14.8,6.7,14.8,14.8 S344.5,292.1,336.4,292.1L336.4,292.1z M336.4,272.3c-2.7,0-4.9,2.2-4.9,4.9s2.2,4.9,4.9,4.9c2.7,0,4.9-2.2,4.9-4.9 S339.1,272.3,336.4,272.3L336.4,272.3z M336.4,272.3"></path> <path class="st0" d="M430.3,440.5H301.7c-8.2,0-14.8-6.7-14.8-14.8v-9.9c0-8.2,6.7-14.8,14.8-14.8h128.6c8.2,0,14.8,6.7,14.8,14.8 v9.9C445.2,433.8,438.5,440.5,430.3,440.5L430.3,440.5z M301.7,410.8c-2.7,0-4.9,2.2-4.9,4.9v9.9c0,2.7,2.2,4.9,4.9,4.9h128.6 c2.7,0,4.9-2.2,4.9-4.9v-9.9c0-2.7-2.2-4.9-4.9-4.9H301.7z M301.7,410.8"></path> <path class="st0" d="M410.5,559.2h-89c-13.6,0-24.7-11.1-24.7-24.7v-98.9h9.9v98.9c0,8.2,6.7,14.8,14.8,14.8h89 c8.2,0,14.8-6.7,14.8-14.8v-98.9h9.9v98.9C435.3,548.1,424.2,559.2,410.5,559.2L410.5,559.2z M410.5,559.2"></path> <path class="st0" d="M415.5,539.4h-98.9v-89h98.9V539.4z M326.5,529.5h79.1v-69.2h-79.1V529.5z M326.5,529.5"></path> <path class="st0" d="M366,519.6c-16.4,0-29.7-11.1-29.7-24.7c0-13.6,13.3-24.7,29.7-24.7c16.4,0,29.7,11.1,29.7,24.7 C395.7,508.5,382.4,519.6,366,519.6L366,519.6z M366,480c-10.9,0-19.8,6.7-19.8,14.8s8.9,14.8,19.8,14.8 c10.9,0,19.8-6.7,19.8-14.8S376.9,480,366,480L366,480z M366,480"></path> <g> <defs> <rect id="SVGID_1_" x="158.3" y="252.5" width="286.8" height="306.6"></rect> </defs> <clipPath id="SVGID_2_"> <use xlink:href="#SVGID_1_" style="overflow:visible;"></use> </clipPath> <rect x="341.3" y="489.9" class="st1" width="49.5" height="9.9"></rect> <path class="st1" d="M242.4,559.1c-3.8,0-7.5-0.2-11.2-0.7c-37.5-4.9-67.2-34.5-72.1-72c-4.1-31.2,9.2-61.9,34.8-80 c11.8-8.3,18.8-21.4,18.8-35v-34.9h9.9v34.9c0,16.8-8.6,32.9-23,43c-22.6,16-34.3,43-30.7,70.6c4.3,32.6,31,59.2,63.6,63.5 c6.5,0.8,13.4,0.8,19.9,0c17.5-2.3,33.8-11,45.7-24.5l7.4,6.5c-13.5,15.3-32,25.2-51.9,27.8C249.9,558.9,246.2,559.1,242.4,559.1 L242.4,559.1z M242.4,559.1"></path> </g> <path class="st0" d="M289,417.4c-1.2-1-2.5-2-3.8-2.9c-14.4-10.2-23-26.3-23-43v-34.9h9.9v34.9c0,13.6,7,26.6,18.8,35 c1.5,1,2.9,2.1,4.3,3.3L289,417.4z M289,417.4"></path> <path class="st0" d="M267.1,371.2c-14.8,0-24.8-3.4-32.8-6.1c-5.9-2-11-3.7-16.7-3.7v-9.9c7.3,0,13.4,2.1,19.8,4.3 c7.7,2.6,16.5,5.6,29.6,5.6V371.2z M267.1,371.2"></path> </g> </g> <g id="Isolation_Mode"> <circle class="st2" cx="301.8" cy="405.9" r="233.6"></circle> </g> <g id="Capa_1"> </g> </svg> 