<?xml version="1.0" encoding="UTF-8"?> <!-- Generator: Adobe Illustrator 23.0.1, SVG Export Plug-In . SVG Version: 6.00 Build 0) --> <svg xmlns="http://www.w3.org/2000/svg" xmlns:xlink="http://www.w3.org/1999/xlink" x="0px" y="0px" viewBox="0 0 595.3 841.9" style="enable-background:new 0 0 595.3 841.9;" xml:space="preserve"> <style type="text/css"> .st0{fill:#F05038;} .st1{clip-path:url(#SVGID_2_);fill:#F05038;} .st2{fill:none;stroke:#F05038;stroke-width:26;stroke-miterlimit:10;} </style> <g id="Layer_1"> </g> <g id="Isolation_Mode"> <g> <path class="st0" d="M308,354C308,354,308,354,308,354c-2.7,0-4.9,2.2-4.9,4.9v106.9c0,2.7,2.2,4.9,4.9,4.9c2.7,0,4.9-2.2,4.9-4.9 V358.9C312.9,356.2,310.7,354,308,354L308,354z M308,354"></path> <g> <defs> <rect id="SVGID_1_" x="200.9" y="266.5" width="214.2" height="291.7"></rect> </defs> <clipPath id="SVGID_2_"> <use xlink:href="#SVGID_1_" style="overflow:visible;"></use> </clipPath> <path class="st1" d="M390.7,402.6c-2.7,0-4.9,2.2-4.9,4.9v106.9c0,2.7,2.2,4.9,4.9,4.9c2.7,0,4.9-2.2,4.9-4.9V407.5 C395.5,404.8,393.4,402.6,390.7,402.6L390.7,402.6z M390.7,402.6"></path> <path class="st1" d="M410.1,349.2c-1.4,0-2.8,0.6-3.7,1.7l-1.1,1.4v-17.7c0-14.2-10.3-26.3-24.3-28.7v-10.2 c5.4,0,9.7-4.4,9.7-9.7v-9.7c0-5.4-4.4-9.7-9.7-9.7h-29.2c-5.4,0-9.7,4.4-9.7,9.7v9.7c0,5.4,4.4,9.7,9.7,9.7v10.2 c-12.7,2.2-22.5,12.4-24.1,25.2c-3.2-0.9-6.6-1.3-10-1.3c-6.8,0-13.5,1.8-19.4,5.3v-24.7c0-13.4-10.9-24.3-24.3-24.3 c-5.3,0-10.4,1.8-14.6,5v-0.1c0-13.4-10.9-24.3-24.3-24.3c-13.4,0-24.3,10.9-24.3,24.3v61.4l-1.1-1.4c-1.7-2.1-4.8-2.3-6.8-0.6 c-1.1,0.9-1.7,2.3-1.7,3.7v163.1c0,5.7,2,11.2,5.6,15.6l11.1,13.3c6.5,7.8,16,12.3,26.1,12.2h128.2c10.1,0,19.7-4.5,26.1-12.2 l11.1-13.3c3.6-4.4,5.6-9.9,5.6-15.6V354C415,351.3,412.8,349.2,410.1,349.2L410.1,349.2z M351.8,276.2l29.2,0v9.7h-29.2V276.2z M371.2,295.7v9.7h-9.7v-9.7H371.2z M337.2,334.6c0-10.7,8.7-19.4,19.4-19.4h19.4c10.7,0,19.4,8.7,19.4,19.4v29.3l-5.5,6.6 c-5.4-5-13.8-4.7-18.9,0.7c-0.6,0.7-1.2,1.4-1.7,2.2c-1.1,1.7-3.5,2.2-5.2,1.1c-0.4-0.3-0.8-0.6-1.1-1.1 c-1.5-2.5-3.9-4.4-6.6-5.5c-0.2-13.6-7.6-26.1-19.4-32.9V334.6z M297,348.2c8.8-8.8,22.1-11.1,33.3-5.9 c10,4.7,16.4,14.6,16.6,25.7c-2.7,1-5,3-6.5,5.4c-1.2,1.7-3.5,2.2-5.2,1.1c-0.4-0.3-0.8-0.6-1.1-1.1c-3.8-6.3-12-8.4-18.3-4.6 c-1.9,1.1-3.4,2.7-4.6,4.6c-1.2,1.7-3.5,2.2-5.2,1.1c-0.4-0.3-0.8-0.6-1.1-1.1c-3.3-5.6-10.2-8-16.3-5.5 C288.8,360.5,291.8,353.5,297,348.2L297,348.2z M259.4,310.3c0-8.1,6.5-14.6,14.6-14.6c8.1,0,14.6,6.5,14.6,14.6V343 c-7.8,8.7-11.2,20.5-9.1,31.9c-1.4,0.3-2.9-0.3-3.7-1.5c-3.3-5.7-10.3-8-16.3-5.4V310.3z M220.5,290.8c0-8,6.5-14.6,14.6-14.6 c8,0,14.6,6.5,14.6,14.6v84.2c-1.3,0-2.5-0.6-3.1-1.7c-3.8-6.3-11.9-8.4-18.3-4.6c-0.8,0.5-1.6,1.1-2.3,1.7l-5.5-6.6V290.8z M405.3,517.1c0,3.4-1.2,6.7-3.4,9.3l-11.1,13.3c-4.6,5.5-11.5,8.8-18.7,8.7H243.9c-7.2,0-14.1-3.2-18.7-8.7l-11.1-13.3 c-2.2-2.6-3.4-5.9-3.4-9.3V367.4l11.8,14.1c0.2,0.2,0.4,0.4,0.6,0.5c0.2,0.2,0.4,0.4,0.6,0.6c0,0,0.1,0,0.1,0.1 c0.3,0.2,0.7,0.3,1,0.4c0.3,0.1,0.5,0.2,0.8,0.2c0.3,0,0.7,0,1-0.1c0.3,0,0.6,0,0.8-0.1c0.3-0.1,0.6-0.2,0.8-0.4 c0.3-0.1,0.6-0.3,0.9-0.5c0,0,0.1,0,0.1-0.1c0.2-0.2,0.4-0.4,0.5-0.6c0.2-0.2,0.4-0.4,0.6-0.6l1.5-2.5c1.1-1.7,3.5-2.2,5.2-1.1 c0.4,0.3,0.8,0.6,1.1,1.1c3.7,6.3,11.8,8.3,18.1,4.6c0.2-0.1,0.4-0.2,0.5-0.3c0.5-0.2,0.9-0.5,1.2-0.9c1.2-0.9,2.2-2.1,3-3.4 c1.2-1.7,3.5-2.2,5.2-1.1c0.4,0.3,0.8,0.6,1.1,1.1c3.8,6.3,12,8.4,18.3,4.6c1.9-1.1,3.4-2.7,4.6-4.6c1.1-1.7,3.5-2.2,5.2-1.1 c0.4,0.3,0.8,0.6,1.1,1.1c3.8,6.3,12,8.4,18.3,4.6c1.9-1.1,3.4-2.7,4.6-4.6c1.2-1.7,3.5-2.2,5.2-1.1c0.4,0.3,0.8,0.6,1.1,1.1 c3.8,6.3,12,8.4,18.3,4.6c1.9-1.1,3.4-2.7,4.6-4.6c1.2-1.7,3.5-2.2,5.2-1.1c0.4,0.3,0.8,0.6,1.1,1.1c3.8,6.3,12,8.4,18.3,4.6 c1.9-1.1,3.4-2.7,4.6-4.6c1-1.7,3.3-2.3,5-1.2c0.5,0.3,0.9,0.7,1.2,1.2l1.5,2.5c0.4,0.4,0.7,0.8,1.1,1.2c0,0,0.1,0,0.1,0.1 c0.3,0.2,0.6,0.4,0.9,0.5c0.5,0.3,1.1,0.5,1.6,0.5c0.6,0.1,1.2,0.1,1.8-0.2c0.4-0.1,0.7-0.2,1-0.4c0,0,0.1,0,0.1-0.1 c0.4-0.4,0.8-0.7,1.2-1.1l11.8-14.1V517.1z M405.3,517.1"></path> </g> <path class="st0" d="M313.9,406.5c-1.9-1.9-4.9-1.9-6.8,0l-4.9,4.9c-1.9,1.9-1.9,5,0,6.9c0.9,0.9,2.1,1.4,3.4,1.4 c1.3,0,2.5-0.5,3.4-1.4l4.9-4.9C315.8,411.4,315.8,408.4,313.9,406.5L313.9,406.5z M313.9,406.5"></path> <path class="st0" d="M313.9,406.5c-1.9-1.9-4.9-1.9-6.8,0l-4.9,4.9c-1.9,1.9-1.9,5,0,6.9c0.9,0.9,2.1,1.4,3.4,1.4 c1.3,0,2.5-0.5,3.4-1.4l4.9-4.9C315.8,411.4,315.8,408.4,313.9,406.5L313.9,406.5z M313.9,406.5"></path> <path class="st0" d="M313.9,406.5c-1.9-1.9-4.9-1.9-6.8,0l-4.9,4.9c-1.9,1.9-1.9,5,0,6.9c0.9,0.9,2.1,1.4,3.4,1.4 c1.3,0,2.5-0.5,3.4-1.4l4.9-4.9C315.8,411.4,315.8,408.4,313.9,406.5L313.9,406.5z M313.9,406.5"></path> <path class="st0" d="M313.9,406.5c-1.9-1.9-4.9-1.9-6.8,0l-4.9,4.9c-1.9,1.9-1.9,5,0,6.9c0.9,0.9,2.1,1.4,3.4,1.4 c1.3,0,2.5-0.5,3.4-1.4l4.9-4.9C315.8,411.4,315.8,408.4,313.9,406.5L313.9,406.5z M313.9,406.5"></path> <path class="st0" d="M313.9,406.5c-1.9-1.9-4.9-1.9-6.8,0l-4.9,4.9c-1.9,1.9-1.9,5,0,6.9c0.9,0.9,2.1,1.4,3.4,1.4 c1.3,0,2.5-0.5,3.4-1.4l4.9-4.9C315.8,411.4,315.8,408.4,313.9,406.5L313.9,406.5z M313.9,406.5"></path> <circle class="st2" cx="308" cy="412.4" r="233.6"></circle> </g> </g> <g id="Capa_1"> </g> </svg> 