<?xml version="1.0" encoding="UTF-8"?> <!-- Generator: Adobe Illustrator 23.1.1, SVG Export Plug-In . SVG Version: 6.00 Build 0) --> <svg xmlns="http://www.w3.org/2000/svg" xmlns:xlink="http://www.w3.org/1999/xlink" id="Layer_1" x="0px" y="0px" viewBox="0 0 595.3 841.9" style="enable-background:new 0 0 595.3 841.9;" xml:space="preserve"> <style type="text/css"> .st0{fill:none;stroke:#00A9DD;stroke-width:26;stroke-miterlimit:10;} .st1{fill:#FFFFFF;} .st2{fill:#00A9DD;} </style> <circle class="st0" cx="308" cy="412.4" r="233.6"></circle> <g> <g> <path class="st1" d="M196.3,412.8l-1.5-0.7c1.2,0.2,2.4,0.4,3.5,0.6c-1,0.2-2.1,0.4-3.2,0.6L196.3,412.8z"></path> <path class="st2" d="M299.3,307c-3.9,0-7.7,1.3-10.9,3.8c-4.3,3.4-6.7,8.4-6.7,13.9v25.1c-29.6,13-53.2,34.3-65.8,47.4 c-1.9-9.5-6.1-21.5-15.3-30.7c-15.9-15.9-40.5-16.8-45.9-16.8c-0.6,0-0.9,0-1,0c-3.5,0.1-6.2,2.9-6.4,6.4 c0,1.2-0.8,29.4,16.8,46.9c4.4,4.4,9.3,7.5,14.4,9.9c-5.1,2.4-10.1,5.6-14.4,10c-17.5,17.5-16.8,45.8-16.8,47 c0.1,3.5,2.9,6.2,6.4,6.4c0.1,0,0.5,0,1,0c5.4,0,30-0.9,45.9-16.8c9.3-9.3,13.5-21.6,15.3-31.2c9.3,9.6,24.4,23.5,43.5,35.5v23 c0,5.6,2.6,10.8,7.1,14.2c3.1,2.3,6.8,3.5,10.5,3.5c1.7,0,3.4-0.2,5.1-0.8c15.9-4.7,27.9-13.4,33.5-18c5.4,0.8,10.7,1.2,16,1.2 c18,0,35.9-3,53.4-9c0,0,0,0,0,0c40.8-13.9,73.9-43.1,73.9-65.1c0-10.5-7.5-23-21.2-35.2c-13.6-12.2-31.9-22.6-51.5-29.5 c0,0,0,0,0,0c0,0,0,0-0.1,0c-9-3.2-18.3-5.5-27.6-7.1c-5.5-6.7-23.7-26-55.3-33.3C302,307.2,300.6,307,299.3,307L299.3,307z M294.9,344.7v-20c0-1.4,0.6-2.7,1.7-3.6c0.5-0.4,1.4-1,2.7-1c0.3,0,0.7,0,1,0.1c16.6,3.9,29,11.6,37.3,18.4c-2-0.1-4-0.1-6-0.1 C319.7,338.6,307.3,340.6,294.9,344.7L294.9,344.7z M331.7,473.6c-5.5,0-11.1-0.5-16.8-1.5c-14.8-2.6-30.1-8.6-45.5-17.8 c-24.2-14.5-42.5-33.4-49.8-41.7c9.4-10.5,36.4-38.3,71.2-52.4c0,0,0.1,0,0.1,0c13.9-5.6,27.6-8.5,40.8-8.5 c7.4,0,14.9,0.6,22.4,1.7c5.7,0.9,11.4,2.1,17,3.6c-13.8,14.6-22.6,36.2-22.6,57.1c0,19.1,8.5,39.7,21.8,54.4 C357.5,471.9,344.6,473.6,331.7,473.6L331.7,473.6z M384.3,464.1c-13.7-12.4-22.7-32-22.7-49.9c0-19.7,9.6-40.7,23.7-52.5 c37.6,14.1,60.6,38.9,60.6,51.1C445.9,425,422.5,450.1,384.3,464.1L384.3,464.1z M203.9,405.9c-7.9-0.7-21.5-3.1-30.5-12.2 c-9-9-11.7-22.5-12.6-30.5c8,0.8,21.5,3.5,30.5,12.6C200.4,384.8,203.1,398,203.9,405.9L203.9,405.9z M160.9,462.7 c0.8-8,3.6-21.5,12.6-30.5c9-9,22.6-11.8,30.5-12.6c-0.8,8-3.5,21.5-12.6,30.5C182.4,459.1,168.9,461.8,160.9,462.7L160.9,462.7z M277.1,491.1c-1,0-1.9-0.3-2.7-0.9c-0.7-0.5-1.8-1.6-1.8-3.6v-15.5c8.7,4.5,17.4,8,25.9,10.6c-5.3,3.3-12.1,6.8-20.1,9.2 C278,491.1,277.5,491.1,277.1,491.1L277.1,491.1z"></path> </g> <g> <path class="st1" d="M408.6,404.6c-3.6,0-6.6,2.9-6.6,6.6v2.9c0,3.6,2.9,6.6,6.6,6.6s6.6-2.9,6.6-6.6v-2.9 C415.2,407.5,412.2,404.6,408.6,404.6z"></path> <path class="st2" d="M408.6,404.6c-3.6,0-6.6,2.9-6.6,6.6v2.9c0,3.6,2.9,6.6,6.6,6.6s6.6-2.9,6.6-6.6v-2.9 C415.2,407.5,412.2,404.6,408.6,404.6L408.6,404.6z"></path> </g> <g> <path class="st1" d="M331.2,368.7c-0.6,0.7-1.3,1.4-1.9,2.1c-2.3,2.8-2,6.9,0.8,9.3c1.2,1,2.7,1.5,4.2,1.5c1.9,0,3.7-0.8,5-2.3 c0.4-0.5,0.9-1,1.3-1.5c2.5-2.6,2.4-6.8-0.2-9.3C337.9,365.9,333.7,366.1,331.2,368.7z"></path> <path class="st2" d="M336,366.6c-1.7,0-3.5,0.7-4.8,2c-0.6,0.7-1.3,1.4-1.9,2.1c-2.3,2.8-2,6.9,0.8,9.3c1.2,1,2.7,1.5,4.2,1.5 c1.9,0,3.7-0.8,5-2.3c0.4-0.5,0.9-1,1.3-1.5c2.5-2.6,2.4-6.8-0.2-9.3C339.2,367.2,337.6,366.6,336,366.6L336,366.6z"></path> </g> <g> <path class="st1" d="M328.2,413.9c0-7.7,1.4-15.4,3.9-22c1.3-3.4-0.4-7.2-3.8-8.5c-3.4-1.3-7.2,0.4-8.5,3.8 c-3.1,8.2-4.8,17.4-4.8,26.8c0,17,5.4,32.9,14.7,43.6c1.3,1.5,3.1,2.3,5,2.3c1.5,0,3.1-0.5,4.3-1.6c2.7-2.4,3-6.5,0.7-9.3 C332.4,440.5,328.2,427.7,328.2,413.9z"></path> <path class="st2" d="M326,382.9c-2.6,0-5.1,1.6-6.1,4.2c-3.1,8.2-4.8,17.4-4.8,26.8c0,17,5.4,32.9,14.7,43.6 c1.3,1.5,3.1,2.3,5,2.3c1.5,0,3.1-0.5,4.3-1.6c2.7-2.4,3-6.5,0.7-9.3c-7.3-8.4-11.5-21.2-11.5-35c0-7.7,1.4-15.4,3.9-22 c1.3-3.4-0.4-7.2-3.8-8.5C327.6,383,326.8,382.9,326,382.9L326,382.9z"></path> </g> </g> <g id="Capa_1"> </g> </svg> 