<?xml version="1.0" encoding="UTF-8"?> <!-- Generator: Adobe Illustrator 23.0.1, SVG Export Plug-In . SVG Version: 6.00 Build 0) --> <svg xmlns="http://www.w3.org/2000/svg" xmlns:xlink="http://www.w3.org/1999/xlink" x="0px" y="0px" viewBox="0 0 595.3 841.9" style="enable-background:new 0 0 595.3 841.9;" xml:space="preserve"> <style type="text/css"> .st0{clip-path:url(#SVGID_2_);fill:#86C341;} .st1{fill:#86C341;} .st2{clip-path:url(#SVGID_4_);fill:#86C341;} .st3{clip-path:url(#SVGID_6_);fill:#86C341;} .st4{clip-path:url(#SVGID_8_);fill:#86C341;} .st5{clip-path:url(#SVGID_10_);fill:#86C341;} .st6{fill:none;stroke:#86C341;stroke-width:26;stroke-miterlimit:10;} </style> <g id="Layer_1"> </g> <g id="Isolation_Mode"> <g> <g> <g> <defs> <rect id="SVGID_1_" x="147.4" y="257.1" width="290.9" height="318"></rect> </defs> <clipPath id="SVGID_2_"> <use xlink:href="#SVGID_1_" style="overflow:visible;"></use> </clipPath> <path class="st0" d="M294,503.9c0,3.5-2.9,6.4-6.4,6.4c-50.7,0-92-41.3-92-92c0-3.5,2.9-6.4,6.4-6.4c3.5,0,6.4,2.9,6.4,6.4 c0,43.7,35.5,79.2,79.2,79.2C291.1,497.5,294,500.4,294,503.9L294,503.9z M204.3,330.4c3.5,0,6.4-2.9,6.4-6.4v-1.6 c0-3.5-2.9-6.4-6.4-6.4s-6.4,2.9-6.4,6.4v1.6C197.9,327.5,200.8,330.4,204.3,330.4L204.3,330.4z M437.8,347.6v72.5 c0,61.8-48.9,112.4-110.1,115.1v32.7c0,1.7-0.7,3.3-1.9,4.5c-1.2,1.2-2.8,1.9-4.5,1.9h-13.7c-3.5,0-6.4-2.9-6.4-6.4 c0-3.5,2.9-6.4,6.4-6.4h7.3v-26.2h-27.9v32.6c0,1.7-0.7,3.3-1.9,4.5c-1.2,1.2-2.8,1.9-4.5,1.9l-13.7,0c-3.5,0-6.4-2.9-6.4-6.4 c0-3.5,2.9-6.4,6.4-6.4l7.3,0v-26.8c-57.8-6.1-103.1-55.1-103.1-114.6v-58h-17.4c-2.6,0-4.9-1.5-5.9-3.9c-1-2.4-0.5-5.1,1.3-6.9 l22-22.8v-8.7c0-16.2,11.4-29.8,26.5-33.3c0-0.5,0-0.9,0-1.4c0-15.4,12.6-28,28-28c15.2,0,27.5,12.1,28,27.1 c10.4,4.2,17.4,14.4,17.4,26c0,4.6-1.1,9.1-3.3,13.1c4.3,5,6.7,11.4,6.7,18.2c0,14.9-11.6,27.1-26.3,28 c11.7,18.8,32.4,30.9,55.7,30.9h55.4c9,0,17.6-1.8,25.4-5.1c1.1-0.5,4.7-1.9,9.2-4.8c15.2-9.7,26.5-25.2,29.9-44.1 c0.6-3,3.2-5.3,6.3-5.3h1.1C435,341.2,437.8,344.1,437.8,347.6L437.8,347.6z M275.4,407.8c4.2,24,25.2,42.2,50.4,42.2h8.5 c24.6,0,45.3-17.6,50.1-40.9c-8,2.7-16.4,4.1-24.9,4.1H304C294.2,413.2,284.5,411.4,275.4,407.8L275.4,407.8z M210.5,285.2 c0,0.3,0,0.6,0,0.9c16.4,2.5,29,16.7,29,33.8V347c0.6,3.1,1.4,6.1,2.4,9.1c1.5,0.5,3,0.7,4.7,0.7c8.4,0,15.2-6.8,15.2-15.2 c0-4.8-2.2-9.3-6.1-12.2c-1.4-1.1-2.3-2.7-2.5-4.4c-0.2-1.8,0.4-3.5,1.5-4.9c2.4-2.8,3.7-6.3,3.7-9.9c0-7.4-5.2-13.7-12.5-15 c-3.5-0.6-5.8-3.9-5.2-7.4c0.2-0.9,0.2-1.8,0.2-2.7c0-8.4-6.8-15.2-15.2-15.2C217.3,269.9,210.5,276.8,210.5,285.2L210.5,285.2z M425,377.6c-4.2,6.3-9.2,12.1-15.1,17.1c-3.7,3.1-7.7,5.9-11.9,8.3c-2.1,33.3-30,59.8-63.8,59.8h-8.5 c-34.6,0-62.8-27.6-63.9-61.9c-2.9-1.9-5.7-3.9-8.4-6.2c-10-8.5-17.7-19.2-22.4-31.2c-0.1-0.1-0.1-0.3-0.2-0.4 c-1.8-4.6-3.2-9.4-4-14.3c-0.1-0.4-0.1-0.8-0.1-1.1v-27.8c0-11.8-9.5-21.3-21.3-21.4c-0.1,0-0.2,0-0.3,0 c-11.7,0.1-21.1,9.7-21.1,21.4v11.3c0,1.7-0.6,3.2-1.8,4.4l-13.3,13.8h8.7c3.5,0,6.4,2.9,6.4,6.4v64.4 c0,56.5,45.9,102.4,102.4,102.4h36.3c56.5,0,102.4-45.9,102.4-102.4V377.6z M425,377.6"></path> </g> <g> <path class="st1" d="M360.1,388c7.1,6.9,18.4,6.8,25.2-0.3C378.3,380.8,367,380.9,360.1,388L360.1,388z M360.1,388"></path> <path class="st1" d="M358.8,361.7c-6.9,7.1-6.8,18.4,0.3,25.2C365.9,379.9,365.8,368.6,358.8,361.7L358.8,361.7z M358.8,361.7"></path> <path class="st1" d="M371.1,376.7c7,6.9,18.3,6.8,25.2-0.3C389.3,369.5,378,369.6,371.1,376.7L371.1,376.7z M371.1,376.7"></path> <path class="st1" d="M369.7,350.4c-6.9,7.1-6.8,18.4,0.3,25.2C376.9,368.6,376.8,357.3,369.7,350.4L369.7,350.4z M369.7,350.4"></path> <path class="st1" d="M391.5,354.8c9.9-0.1,17.8-8.2,17.7-18C399.3,336.9,391.4,345,391.5,354.8L391.5,354.8z M391.5,354.8"></path> <path class="st1" d="M382.1,365.5c7.1,6.9,18.4,6.8,25.2-0.3C400.3,358.3,389,358.4,382.1,365.5L382.1,365.5z M382.1,365.5"></path> <g> <defs> <rect id="SVGID_3_" x="344.9" y="320.5" transform="matrix(0.9999 -1.064187e-02 1.064187e-02 0.9999 -3.8215 4.1216)" width="80.9" height="81.3"></rect> </defs> <clipPath id="SVGID_4_"> <use xlink:href="#SVGID_3_" style="overflow:visible;"></use> </clipPath> <path class="st2" d="M380.8,339.2c-6.9,7.1-6.8,18.4,0.3,25.2C387.9,357.3,387.8,346,380.8,339.2L380.8,339.2z M380.8,339.2"></path> </g> <g> <defs> <rect id="SVGID_5_" x="344.9" y="320.5" transform="matrix(0.9999 -1.064187e-02 1.064187e-02 0.9999 -3.8215 4.1216)" width="80.9" height="81.3"></rect> </defs> <clipPath id="SVGID_6_"> <use xlink:href="#SVGID_5_" style="overflow:visible;"></use> </clipPath> <path class="st3" d="M358.1,393.1c-0.4-0.1-1.3-0.5-2.4-1.6c-1.1-1.1-1.5-2-1.6-2.4c0.3-0.6,0.2-1.4-0.3-1.9 c-0.7-0.6-1.6-0.6-2.2,0c-0.4,0.5-1.1,1.5-0.3,3.5c0.3,0.6,0.7,1.2,1.1,1.8l-6.6,6.9c-0.6,0.7-0.6,1.6,0,2.2 c0.3,0.3,0.7,0.4,1.1,0.4c0.4,0,0.8-0.1,1.1-0.5l6.7-6.9c0.6,0.4,1.2,0.8,1.8,1.1c1.9,0.9,3.2,0,3.5-0.4c0.6-0.7,0.6-1.6,0-2.2 C359.5,392.7,358.7,392.7,358.1,393.1L358.1,393.1z M358.1,393.1"></path> </g> </g> <g> <path class="st1" d="M326.4,376.8c14.9-4.1,23.5-19.4,19.3-34.2C330.9,346.7,322.3,362,326.4,376.8L326.4,376.8z M326.4,376.8"></path> <path class="st1" d="M289.9,358.1c4.1,14.9,19.4,23.5,34.2,19.3C319.9,362.7,304.6,354,289.9,358.1L289.9,358.1z M289.9,358.1"></path> <path class="st1" d="M319.8,353.2c14.8-4,23.5-19.3,19.3-34.2C324.3,323.1,315.6,338.4,319.8,353.2L319.8,353.2z M319.8,353.2"></path> <path class="st1" d="M283.3,334.5c4.1,14.9,19.4,23.5,34.2,19.3C313.4,339,298.1,330.3,283.3,334.5L283.3,334.5z M283.3,334.5"></path> <path class="st1" d="M306.2,308.6c7.6-13.4,2.8-30.4-10.5-37.9C288.1,284.1,292.8,301,306.2,308.6L306.2,308.6z M306.2,308.6"></path> <path class="st1" d="M313.2,329.6c14.9-4.1,23.5-19.4,19.3-34.2C317.8,299.4,309.1,314.7,313.2,329.6L313.2,329.6z M313.2,329.6 "></path> <g> <defs> <rect id="SVGID_7_" x="246.9" y="258.5" transform="matrix(0.4922 -0.8705 0.8705 0.4922 -122.7262 433.1886)" width="126" height="126.6"></rect> </defs> <clipPath id="SVGID_8_"> <use xlink:href="#SVGID_7_" style="overflow:visible;"></use> </clipPath> <path class="st4" d="M276.8,310.8c4.1,14.9,19.4,23.5,34.2,19.3C306.8,315.4,291.5,306.7,276.8,310.8L276.8,310.8z M276.8,310.8"></path> </g> <g> <defs> <rect id="SVGID_9_" x="246.9" y="258.5" transform="matrix(0.4922 -0.8705 0.8705 0.4922 -122.7262 433.1886)" width="126" height="126.6"></rect> </defs> <clipPath id="SVGID_10_"> <use xlink:href="#SVGID_9_" style="overflow:visible;"></use> </clipPath> <path class="st5" d="M331.6,383.4c-0.4,0.5-1.7,1.4-4,2c-2.3,0.6-3.8,0.5-4.5,0.3c-0.5-0.9-1.7-1.4-2.8-1.1 c-1.4,0.4-2.1,1.7-1.7,3c0.3,0.9,1.2,2.7,4.5,3.1c1,0.1,2.1,0.1,3.3-0.1l4.1,14.3c0.4,1.4,1.7,2.1,3,1.7 c0.7-0.2,1.1-0.6,1.4-1.1c0.3-0.5,0.4-1.2,0.2-1.8l-4-14.4c1-0.4,2.1-1,2.9-1.6c2.7-1.9,2.5-4.3,2.2-4.9 c-0.4-1.4-1.7-2.1-3-1.7C332.3,381.2,331.5,382.3,331.6,383.4L331.6,383.4z M331.6,383.4"></path> </g> </g> </g> <circle class="st6" cx="292.8" cy="405.5" r="233.6"></circle> </g> </g> <g id="Capa_1"> </g> </svg> 