<?xml version="1.0" encoding="UTF-8"?> <!-- Generator: Adobe Illustrator 23.0.1, SVG Export Plug-In . SVG Version: 6.00 Build 0) --> <svg xmlns="http://www.w3.org/2000/svg" xmlns:xlink="http://www.w3.org/1999/xlink" x="0px" y="0px" viewBox="0 0 595.3 841.9" style="enable-background:new 0 0 595.3 841.9;" xml:space="preserve"> <style type="text/css"> .st0{fill:none;stroke:#A22385;stroke-width:26;stroke-miterlimit:10;} .st1{fill:#A22385;} </style> <g id="Layer_1"> </g> <g id="Isolation_Mode"> </g> <g id="Capa_1"> <g> <circle class="st0" cx="312.5" cy="417.8" r="233.6"></circle> <g> <g> <g> <path class="st1" d="M464.1,310.7h-57.5v-41.8c0-2.9-2.3-5.2-5.2-5.2H223.7c-2.9,0-5.2,2.3-5.2,5.2v73.1H161 c-2.9,0-5.2,2.3-5.2,5.2v214.2c0,2.9,2.3,5.2,5.2,5.2c2.9,0,5.2-2.3,5.2-5.2v-209h52.2v214.2c0,2.9,2.3,5.2,5.2,5.2h177.6 c2.9,0,5.2-2.3,5.2-5.2V321.2h52.2v240.3c0,2.9,2.3,5.2,5.2,5.2c2.9,0,5.2-2.3,5.2-5.2V316 C469.3,313.1,466.9,310.7,464.1,310.7z M307.3,561.5h-20.9v-47h20.9V561.5z M338.7,561.5h-20.9v-47h20.9V561.5z M396.1,561.5 h-47v-52.2c0-2.9-2.3-5.2-5.2-5.2h-62.7c-2.9,0-5.2,2.3-5.2,5.2v52.2h-47V274.2h167.2V561.5z"></path> </g> </g> <g> <g> <path class="st1" d="M276,284.6h-31.3c-2.9,0-5.2,2.3-5.2,5.2v31.3c0,2.9,2.3,5.2,5.2,5.2H276c2.9,0,5.2-2.3,5.2-5.2v-31.3 C281.2,287,278.9,284.6,276,284.6z M270.7,316h-20.9v-20.9h20.9V316z"></path> </g> </g> <g> <g> <path class="st1" d="M328.2,284.6h-31.3c-2.9,0-5.2,2.3-5.2,5.2v31.3c0,2.9,2.3,5.2,5.2,5.2h31.3c2.9,0,5.2-2.3,5.2-5.2v-31.3 C333.4,287,331.1,284.6,328.2,284.6z M323,316h-20.9v-20.9H323V316z"></path> </g> </g> <g> <g> <path class="st1" d="M380.5,284.6h-31.3c-2.9,0-5.2,2.3-5.2,5.2v31.3c0,2.9,2.3,5.2,5.2,5.2h31.3c2.9,0,5.2-2.3,5.2-5.2v-31.3 C385.7,287,383.3,284.6,380.5,284.6z M375.2,316h-20.9v-20.9h20.9V316z"></path> </g> </g> <g> <g> <path class="st1" d="M276,336.9h-31.3c-2.9,0-5.2,2.3-5.2,5.2v31.3c0,2.9,2.3,5.2,5.2,5.2H276c2.9,0,5.2-2.3,5.2-5.2v-31.3 C281.2,339.2,278.9,336.9,276,336.9z M270.7,368.2h-20.9v-20.9h20.9V368.2z"></path> </g> </g> <g> <g> <path class="st1" d="M328.2,336.9h-31.3c-2.9,0-5.2,2.3-5.2,5.2v31.3c0,2.9,2.3,5.2,5.2,5.2h31.3c2.9,0,5.2-2.3,5.2-5.2v-31.3 C333.4,339.2,331.1,336.9,328.2,336.9z M323,368.2h-20.9v-20.9H323V368.2z"></path> </g> </g> <g> <g> <path class="st1" d="M380.5,336.9h-31.3c-2.9,0-5.2,2.3-5.2,5.2v31.3c0,2.9,2.3,5.2,5.2,5.2h31.3c2.9,0,5.2-2.3,5.2-5.2v-31.3 C385.7,339.2,383.3,336.9,380.5,336.9z M375.2,368.2h-20.9v-20.9h20.9V368.2z"></path> </g> </g> <g> <g> <path class="st1" d="M276,389.1h-31.3c-2.9,0-5.2,2.3-5.2,5.2v31.3c0,2.9,2.3,5.2,5.2,5.2H276c2.9,0,5.2-2.3,5.2-5.2v-31.3 C281.2,391.5,278.9,389.1,276,389.1z M270.7,420.5h-20.9v-20.9h20.9V420.5z"></path> </g> </g> <g> <g> <path class="st1" d="M328.2,389.1h-31.3c-2.9,0-5.2,2.3-5.2,5.2v31.3c0,2.9,2.3,5.2,5.2,5.2h31.3c2.9,0,5.2-2.3,5.2-5.2v-31.3 C333.4,391.5,331.1,389.1,328.2,389.1z M323,420.5h-20.9v-20.9H323V420.5z"></path> </g> </g> <g> <g> <path class="st1" d="M380.5,389.1h-31.3c-2.9,0-5.2,2.3-5.2,5.2v31.3c0,2.9,2.3,5.2,5.2,5.2h31.3c2.9,0,5.2-2.3,5.2-5.2v-31.3 C385.7,391.5,383.3,389.1,380.5,389.1z M375.2,420.5h-20.9v-20.9h20.9V420.5z"></path> </g> </g> <g> <g> <path class="st1" d="M276,441.4h-31.3c-2.9,0-5.2,2.3-5.2,5.2v31.3c0,2.9,2.3,5.2,5.2,5.2H276c2.9,0,5.2-2.3,5.2-5.2v-31.3 C281.2,443.7,278.9,441.4,276,441.4z M270.7,472.7h-20.9v-20.9h20.9V472.7z"></path> </g> </g> <g> <g> <path class="st1" d="M328.2,441.4h-31.3c-2.9,0-5.2,2.3-5.2,5.2v31.3c0,2.9,2.3,5.2,5.2,5.2h31.3c2.9,0,5.2-2.3,5.2-5.2v-31.3 C333.4,443.7,331.1,441.4,328.2,441.4z M323,472.7h-20.9v-20.9H323V472.7z"></path> </g> </g> <g> <g> <path class="st1" d="M380.5,441.4h-31.3c-2.9,0-5.2,2.3-5.2,5.2v31.3c0,2.9,2.3,5.2,5.2,5.2h31.3c2.9,0,5.2-2.3,5.2-5.2v-31.3 C385.7,443.7,383.3,441.4,380.5,441.4z M375.2,472.7h-20.9v-20.9h20.9V472.7z"></path> </g> </g> <g> <g> <path class="st1" d="M187.2,363h-5.2c-2.9,0-5.2,2.3-5.2,5.2v5.2c0,2.9,2.3,5.2,5.2,5.2h5.2c2.9,0,5.2-2.3,5.2-5.2v-5.2 C192.4,365.3,190,363,187.2,363z"></path> </g> </g> <g> <g> <path class="st1" d="M208.1,363h-5.2c-2.9,0-5.2,2.3-5.2,5.2v5.2c0,2.9,2.3,5.2,5.2,5.2h5.2c2.9,0,5.2-2.3,5.2-5.2v-5.2 C213.3,365.3,210.9,363,208.1,363z"></path> </g> </g> <g> <g> <path class="st1" d="M187.2,383.9h-5.2c-2.9,0-5.2,2.3-5.2,5.2v5.2c0,2.9,2.3,5.2,5.2,5.2h5.2c2.9,0,5.2-2.3,5.2-5.2v-5.2 C192.4,386.2,190,383.9,187.2,383.9z"></path> </g> </g> <g> <g> <path class="st1" d="M208.1,383.9h-5.2c-2.9,0-5.2,2.3-5.2,5.2v5.2c0,2.9,2.3,5.2,5.2,5.2h5.2c2.9,0,5.2-2.3,5.2-5.2v-5.2 C213.3,386.2,210.9,383.9,208.1,383.9z"></path> </g> </g> <g> <g> <path class="st1" d="M187.2,404.8h-5.2c-2.9,0-5.2,2.3-5.2,5.2v5.2c0,2.9,2.3,5.2,5.2,5.2h5.2c2.9,0,5.2-2.3,5.2-5.2V410 C192.4,407.1,190,404.8,187.2,404.8z"></path> </g> </g> <g> <g> <path class="st1" d="M208.1,404.8h-5.2c-2.9,0-5.2,2.3-5.2,5.2v5.2c0,2.9,2.3,5.2,5.2,5.2h5.2c2.9,0,5.2-2.3,5.2-5.2V410 C213.3,407.1,210.9,404.8,208.1,404.8z"></path> </g> </g> <g> <g> <path class="st1" d="M187.2,425.7h-5.2c-2.9,0-5.2,2.3-5.2,5.2v5.2c0,2.9,2.3,5.2,5.2,5.2h5.2c2.9,0,5.2-2.3,5.2-5.2v-5.2 C192.4,428,190,425.7,187.2,425.7z"></path> </g> </g> <g> <g> <path class="st1" d="M208.1,425.7h-5.2c-2.9,0-5.2,2.3-5.2,5.2v5.2c0,2.9,2.3,5.2,5.2,5.2h5.2c2.9,0,5.2-2.3,5.2-5.2v-5.2 C213.3,428,210.9,425.7,208.1,425.7z"></path> </g> </g> <g> <g> <path class="st1" d="M187.2,446.6h-5.2c-2.9,0-5.2,2.3-5.2,5.2v5.2c0,2.9,2.3,5.2,5.2,5.2h5.2c2.9,0,5.2-2.3,5.2-5.2v-5.2 C192.4,448.9,190,446.6,187.2,446.6z"></path> </g> </g> <g> <g> <path class="st1" d="M208.1,446.6h-5.2c-2.9,0-5.2,2.3-5.2,5.2v5.2c0,2.9,2.3,5.2,5.2,5.2h5.2c2.9,0,5.2-2.3,5.2-5.2v-5.2 C213.3,448.9,210.9,446.6,208.1,446.6z"></path> </g> </g> <g> <g> <path class="st1" d="M187.2,467.5h-5.2c-2.9,0-5.2,2.3-5.2,5.2v5.2c0,2.9,2.3,5.2,5.2,5.2h5.2c2.9,0,5.2-2.3,5.2-5.2v-5.2 C192.4,469.8,190,467.5,187.2,467.5z"></path> </g> </g> <g> <g> <path class="st1" d="M208.1,467.5h-5.2c-2.9,0-5.2,2.3-5.2,5.2v5.2c0,2.9,2.3,5.2,5.2,5.2h5.2c2.9,0,5.2-2.3,5.2-5.2v-5.2 C213.3,469.8,210.9,467.5,208.1,467.5z"></path> </g> </g> <g> <g> <path class="st1" d="M187.2,488.4h-5.2c-2.9,0-5.2,2.3-5.2,5.2v5.2c0,2.9,2.3,5.2,5.2,5.2h5.2c2.9,0,5.2-2.3,5.2-5.2v-5.2 C192.4,490.7,190,488.4,187.2,488.4z"></path> </g> </g> <g> <g> <path class="st1" d="M208.1,488.4h-5.2c-2.9,0-5.2,2.3-5.2,5.2v5.2c0,2.9,2.3,5.2,5.2,5.2h5.2c2.9,0,5.2-2.3,5.2-5.2v-5.2 C213.3,490.7,210.9,488.4,208.1,488.4z"></path> </g> </g> <g> <g> <path class="st1" d="M187.2,509.3h-5.2c-2.9,0-5.2,2.3-5.2,5.2v5.2c0,2.9,2.3,5.2,5.2,5.2h5.2c2.9,0,5.2-2.3,5.2-5.2v-5.2 C192.4,511.6,190,509.3,187.2,509.3z"></path> </g> </g> <g> <g> <path class="st1" d="M208.1,509.3h-5.2c-2.9,0-5.2,2.3-5.2,5.2v5.2c0,2.9,2.3,5.2,5.2,5.2h5.2c2.9,0,5.2-2.3,5.2-5.2v-5.2 C213.3,511.6,210.9,509.3,208.1,509.3z"></path> </g> </g> <g> <g> <path class="st1" d="M187.2,530.2h-5.2c-2.9,0-5.2,2.3-5.2,5.2v5.2c0,2.9,2.3,5.2,5.2,5.2h5.2c2.9,0,5.2-2.3,5.2-5.2v-5.2 C192.4,532.5,190,530.2,187.2,530.2z"></path> </g> </g> <g> <g> <path class="st1" d="M208.1,530.2h-5.2c-2.9,0-5.2,2.3-5.2,5.2v5.2c0,2.9,2.3,5.2,5.2,5.2h5.2c2.9,0,5.2-2.3,5.2-5.2v-5.2 C213.3,532.5,210.9,530.2,208.1,530.2z"></path> </g> </g> <g> <g> <path class="st1" d="M443.2,331.6h-20.9c-2.9,0-5.2,2.3-5.2,5.2v20.9c0,2.9,2.3,5.2,5.2,5.2h20.9c2.9,0,5.2-2.3,5.2-5.2v-20.9 C448.4,334,446,331.6,443.2,331.6z M437.9,352.5h-10.4v-10.4h10.4V352.5z"></path> </g> </g> <g> <g> <path class="st1" d="M443.2,373.4h-20.9c-2.9,0-5.2,2.3-5.2,5.2v20.9c0,2.9,2.3,5.2,5.2,5.2h20.9c2.9,0,5.2-2.3,5.2-5.2v-20.9 C448.4,375.8,446,373.4,443.2,373.4z M437.9,394.3h-10.4v-10.4h10.4V394.3z"></path> </g> </g> <g> <g> <path class="st1" d="M443.2,415.2h-20.9c-2.9,0-5.2,2.3-5.2,5.2v20.9c0,2.9,2.3,5.2,5.2,5.2h20.9c2.9,0,5.2-2.3,5.2-5.2v-20.9 C448.4,417.6,446,415.2,443.2,415.2z M437.9,436.1h-10.4v-10.4h10.4V436.1z"></path> </g> </g> <g> <g> <path class="st1" d="M443.2,457h-20.9c-2.9,0-5.2,2.3-5.2,5.2v20.9c0,2.9,2.3,5.2,5.2,5.2h20.9c2.9,0,5.2-2.3,5.2-5.2v-20.9 C448.4,459.4,446,457,443.2,457z M437.9,477.9h-10.4v-10.4h10.4V477.9z"></path> </g> </g> <g> <g> <path class="st1" d="M443.2,498.8h-20.9c-2.9,0-5.2,2.3-5.2,5.2V525c0,2.9,2.3,5.2,5.2,5.2h20.9c2.9,0,5.2-2.3,5.2-5.2v-20.9 C448.4,501.2,446,498.8,443.2,498.8z M437.9,519.7h-10.4v-10.4h10.4V519.7z"></path> </g> </g> </g> </g> </g> </svg> 